HIERARCHY
ROOT bottle4_body
{
	OFFSET 0.000000 0.000000 0.000000
	CHANNELS 6 Xposition Yposition Zposition Yrotation Xrotation Zrotation
	End Site
	{
		OFFSET 0.000000 0.000000 0.000000
	}
}
MOTION
Frames: 68
Frame Time: 0.008333334
3.227499 4.328805 3.515009 -102.141100 0.770231 4.021368 
3.228245 4.328737 3.515218 -102.138100 0.779381 4.042197 
3.228636 4.328606 3.515446 -102.136000 0.776685 4.038172 
3.228930 4.328547 3.516001 -102.132300 0.779432 4.015390 
3.229091 4.328512 3.516532 -102.108900 0.769001 3.999598 
3.228609 4.328819 3.516580 -102.193900 0.722764 4.024914 
3.228486 4.328710 3.517390 -102.153700 0.791874 3.983151 
3.227790 4.328891 3.517600 -102.159900 0.812922 3.989210 
3.227219 4.329044 3.517948 -102.147900 0.808292 4.000817 
3.226823 4.328984 3.518185 -102.167400 0.784614 3.975218 
3.226761 4.329057 3.518102 -102.168600 0.782347 3.983637 
3.226859 4.329187 3.517491 -102.146900 0.808242 3.988927 
3.226670 4.329211 3.516891 -102.149100 0.828486 3.983624 
3.226579 4.329260 3.516391 -102.159900 0.815106 3.985624 
3.226279 4.329271 3.515373 -102.146400 0.815003 4.007027 
3.225755 4.329407 3.514364 -102.140500 0.835885 4.022371 
3.224698 4.329825 3.513572 -102.151200 0.841810 4.026263 
3.223588 4.330113 3.512695 -102.185800 0.841180 4.034054 
3.223492 4.330126 3.512625 -102.185300 0.844454 4.032269 
3.223397 4.330138 3.512555 -102.184800 0.847730 4.030484 
3.223302 4.330151 3.512486 -102.184300 0.851006 4.028699 
3.223207 4.330163 3.512416 -102.183800 0.854279 4.026915 
3.223111 4.330175 3.512346 -102.183300 0.857555 4.025130 
3.223016 4.330188 3.512277 -102.182800 0.860830 4.023345 
3.222921 4.330200 3.512207 -102.182300 0.864105 4.021560 
3.222826 4.330213 3.512137 -102.181900 0.867380 4.019775 
3.222730 4.330225 3.512068 -102.181300 0.870655 4.017989 
3.222635 4.330237 3.511998 -102.180900 0.873931 4.016206 
3.222540 4.330250 3.511929 -102.180400 0.877207 4.014421 
3.222444 4.330263 3.511859 -102.179900 0.880481 4.012636 
3.222349 4.330275 3.511789 -102.179400 0.883756 4.010851 
3.222254 4.330287 3.511719 -102.178900 0.887031 4.009067 
3.222159 4.330300 3.511650 -102.178400 0.890307 4.007282 
3.222063 4.330312 3.511580 -102.177900 0.893582 4.005497 
3.221968 4.330325 3.511511 -102.177400 0.896857 4.003715 
3.221873 4.330337 3.511441 -102.176900 0.900132 4.001928 
3.221777 4.330349 3.511371 -102.176500 0.903408 4.000144 
3.221682 4.330362 3.511302 -102.176000 0.906683 3.998360 
3.221587 4.330374 3.511232 -102.175500 0.909958 3.996576 
3.221492 4.330387 3.511162 -102.175000 0.913234 3.994790 
3.221120 4.330403 3.511101 -102.179200 0.907846 3.996375 
3.220898 4.330531 3.511268 -102.179500 0.917854 3.998082 
3.220676 4.330659 3.511434 -102.179800 0.927860 3.999789 
3.220922 4.330590 3.511654 -102.179100 0.898447 3.987012 
3.221227 4.330558 3.511834 -102.179900 0.894441 3.990476 
3.221278 4.330589 3.511840 -102.220300 0.858163 4.005548 
3.221758 4.330394 3.512326 -102.180700 0.875057 3.970881 
3.221888 4.330358 3.512506 -102.170500 0.876826 3.981233 
3.221835 4.330410 3.512611 -102.160100 0.877402 3.977428 
3.221617 4.330375 3.512707 -102.151200 0.853693 3.962250 
3.221457 4.330598 3.512486 -102.160800 0.842114 3.988189 
3.221002 4.330515 3.512248 -102.191700 0.833304 3.995548 
3.220737 4.330645 3.512082 -102.214100 0.858034 3.994357 
3.220855 4.330654 3.511965 -102.214500 0.888397 3.995853 
3.221313 4.330549 3.511988 -102.175800 0.898932 3.986732 
3.221158 4.330752 3.511560 -102.243700 0.861465 4.044620 
3.221756 4.330479 3.511487 -102.173800 0.866071 3.992118 
3.221797 4.330460 3.511363 -102.176500 0.869276 3.990283 
3.221737 4.330387 3.511359 -102.173700 0.881478 3.994122 
3.221712 4.330381 3.511344 -102.174600 0.873281 3.999345 
3.221732 4.330359 3.511612 -102.184400 0.870825 3.989265 
3.221751 4.330336 3.511879 -102.194200 0.868367 3.979184 
3.221977 4.330287 3.512162 -102.186900 0.858181 3.973504 
3.222101 4.330205 3.512457 -102.176600 0.870290 3.966018 
3.222126 4.330201 3.512511 -102.172500 0.869917 3.962331 
3.221982 4.330235 3.512473 -102.160300 0.873221 3.962257 
3.221801 4.330238 3.512394 -102.155100 0.877338 3.971261 
3.221699 4.330304 3.511968 -102.156300 0.902747 3.976774 
